<?xml version="1.0" standalone="no"?>
<!DOCTYPE svg PUBLIC "-//W3C//DTD SVG 20010904//EN"
 "http://www.w3.org/TR/2001/REC-SVG-20010904/DTD/svg10.dtd">
<svg version="1.0" xmlns="http://www.w3.org/2000/svg"
 width="2489.000000pt" height="2489.000000pt" viewBox="0 0 2489.000000 2489.000000"
 preserveAspectRatio="xMidYMid meet">
<metadata>
Created by potrace 1.14, written by Peter Selinger 2001-2017
</metadata>
<g transform="translate(0.000000,2489.000000) scale(0.100000,-0.100000)"
fill="#000000" stroke="none">
<path d="M10747 24723 c-1 0 -859 -4 -1907 -7 -3737 -13 -5337 -25 -5390 -41
-8 -2 -31 -7 -50 -10 -164 -28 -261 -113 -382 -335 -79 -145 -92 -250 -112
-895 -29 -916 -36 -7495 -11 -8910 15 -858 16 -891 30 -1235 2 -58 7 -175 10
-260 3 -85 8 -195 10 -245 3 -49 7 -142 10 -205 3 -63 7 -149 10 -190 2 -41 7
-132 10 -202 3 -70 7 -160 10 -200 2 -40 7 -122 9 -181 3 -59 8 -131 10 -160
3 -29 8 -95 11 -147 4 -52 8 -122 10 -155 2 -33 7 -89 11 -125 18 -176 23
-239 29 -325 3 -44 7 -102 10 -130 3 -27 7 -81 10 -120 2 -38 7 -103 10 -143
3 -39 7 -100 10 -135 7 -82 13 -155 20 -252 3 -44 7 -98 10 -120 2 -22 7 -71
10 -110 3 -38 8 -88 10 -110 2 -22 7 -71 10 -110 4 -38 8 -81 10 -95 5 -27 22
-178 31 -270 3 -30 7 -72 10 -92 2 -21 6 -55 8 -75 3 -21 8 -65 11 -98 3 -33
8 -71 10 -85 3 -21 16 -110 30 -215 1 -11 5 -45 9 -75 4 -30 11 -80 16 -110 9
-58 20 -135 25 -185 2 -16 8 -57 14 -90 5 -33 13 -78 16 -100 3 -23 7 -50 9
-60 2 -11 7 -42 10 -68 4 -27 10 -59 12 -70 3 -12 7 -33 10 -47 2 -14 11 -59
19 -100 8 -41 16 -88 19 -105 3 -16 14 -77 25 -135 12 -58 30 -159 41 -225 11
-66 22 -131 25 -145 2 -14 11 -61 19 -105 19 -103 26 -136 32 -157 3 -10 7
-28 9 -41 3 -13 23 -97 46 -188 22 -90 42 -171 44 -179 5 -20 25 -93 74 -272
79 -285 186 -606 255 -761 8 -18 46 -106 86 -197 99 -224 311 -658 395 -805
103 -182 312 -501 412 -630 13 -16 27 -34 31 -40 4 -5 43 -57 87 -115 43 -58
84 -110 90 -116 5 -6 44 -53 85 -104 41 -51 93 -114 115 -140 22 -25 62 -72
89 -103 28 -32 61 -70 75 -86 195 -211 255 -273 366 -384 72 -71 155 -151 185
-179 30 -27 71 -64 90 -82 40 -37 159 -139 240 -206 30 -25 70 -59 90 -76 144
-126 727 -576 844 -652 23 -15 43 -29 46 -32 40 -40 485 -324 709 -452 99 -57
349 -180 441 -217 58 -24 136 -56 174 -72 38 -16 72 -29 77 -29 11 0 205 -82
297 -125 40 -19 79 -35 86 -35 6 0 16 -4 22 -9 15 -14 184 -66 369 -115 94
-24 217 -59 275 -76 108 -33 306 -86 350 -94 21 -3 239 -47 314 -62 37 -8 444
-74 483 -79 286 -36 381 -46 508 -52 278 -14 1252 -6 1550 12 39 2 111 7 160
10 50 3 122 8 160 10 73 6 432 51 475 60 40 8 69 13 175 30 55 9 128 22 163
30 34 8 74 17 90 20 191 34 693 158 972 241 257 76 444 139 575 193 11 5 40
17 65 26 25 10 78 33 118 52 41 18 75 33 77 33 2 0 51 23 110 50 59 28 109 50
111 50 12 0 542 259 659 323 99 53 247 143 397 240 62 41 128 82 146 93 17 10
32 22 32 26 0 4 5 8 11 8 8 0 139 83 273 172 64 43 365 277 396 308 3 3 37 32
75 65 39 33 75 64 81 70 6 5 42 37 80 70 37 33 80 71 95 85 15 14 69 63 120
110 127 115 662 651 774 775 133 147 157 175 201 230 21 27 47 59 57 70 77 83
284 398 435 660 207 358 301 546 437 865 31 74 106 234 165 355 117 236 154
321 224 516 58 163 186 591 202 679 3 14 14 59 24 100 10 41 21 86 23 100 3
14 10 43 15 65 6 22 13 51 16 65 2 14 12 61 21 105 9 44 19 91 21 105 2 14 9
45 14 70 5 25 16 83 24 130 8 47 22 123 31 170 8 47 18 101 21 120 3 19 7 49
10 65 3 17 7 37 9 45 2 8 6 31 9 50 10 68 47 265 67 360 7 30 13 62 14 70 1
13 16 93 20 110 9 40 15 70 19 94 3 16 10 52 16 80 6 28 12 62 15 76 3 14 7
36 10 50 5 29 13 70 19 103 5 28 20 119 21 132 1 6 4 31 8 56 8 48 9 55 26
154 6 33 13 80 16 105 3 25 8 52 10 60 3 13 10 66 20 170 2 14 6 45 9 70 3 25
9 68 12 95 3 28 7 57 9 65 4 15 10 76 20 185 3 33 8 85 11 115 8 74 11 111 18
200 4 41 9 95 11 120 3 25 7 79 10 120 3 41 8 100 10 130 3 30 7 93 10 140 3
47 7 108 9 135 3 28 8 88 11 135 3 47 8 108 10 135 3 28 7 86 10 130 3 44 8
107 10 140 6 68 13 164 20 275 3 41 7 104 10 140 27 363 39 736 38 1165 -2
935 -1 1905 2 2100 2 121 6 452 10 735 11 903 17 1300 30 2015 11 602 17 926
20 1090 2 105 7 327 10 495 3 168 8 373 10 455 2 83 7 267 10 410 3 143 8 316
10 385 5 134 12 339 20 565 2 77 7 212 11 300 33 877 38 2421 8 2675 -15 128
-102 330 -161 376 -41 31 -129 58 -219 68 -32 4 -72 9 -89 12 -93 15 -756 28
-2000 41 -501 5 -8774 11 -8778 6z m-764 -1513 c3 -11 1 -18 -4 -14 -5 3 -9
12 -9 20 0 20 7 17 13 -6z m-5843 -8321 c-13 -75 -51 -202 -58 -195 -2 3 0 18
6 33 6 15 21 74 33 130 25 113 37 132 19 32z m-73 -301 c-3 -8 -6 -5 -6 6 -1
11 2 17 5 13 3 -3 4 -12 1 -19z"/>
<path d="M22170 20990 c0 -5 5 -10 11 -10 5 0 7 5 4 10 -3 6 -8 10 -11 10 -2
0 -4 -4 -4 -10z"/>
<path d="M22105 20970 c-3 -6 1 -7 9 -4 18 7 21 14 7 14 -6 0 -13 -4 -16 -10z"/>
<path d="M22160 20896 c0 -2 8 -10 18 -17 15 -13 16 -12 3 4 -13 16 -21 21
-21 13z"/>
</g>
</svg>
